<svg xmlns="http://www.w3.org/2000/svg" width="60" height="75" viewBox="0 0 60 75" fill="none"><g clip-path="url(#clip0_292_848)"><path d="M29.3075 35.2254C27.0747 37.1768 24.88 39.0954 22.6448 41.0516C22.7257 41.1644 22.8352 41.329 22.9566 41.4865C24.4182 43.3769 24.2468 45.768 22.5234 47.4702C20.9047 49.069 18.4577 49.2336 16.6105 47.7877C11.6545 43.9106 6.71047 40.0147 1.78307 36.1C-0.114096 34.5929 -0.528283 32.1923 0.697615 30.2738C2.03301 28.1859 4.36103 27.5347 6.67 28.6021C6.80092 28.6632 6.93661 28.7103 7.12466 28.7855C10.9499 20.3612 16.5962 13.3853 24.0849 7.8013C22.8876 6.45172 22.3758 4.98695 22.8828 3.2847C23.7826 0.265794 27.3889 -1.01559 29.8978 0.917069C34.9776 4.82707 40.0025 8.8123 45.0061 12.8187C46.8438 14.2905 47.1318 16.7146 45.8654 18.6026C44.5443 20.5729 42.2496 21.2241 40.0882 20.239C39.9288 20.1661 39.7693 20.0932 39.6264 20.0274C38.2101 22.5831 36.8081 25.1153 35.356 27.7345C35.5036 27.8615 35.7131 28.0543 35.9345 28.2306C43.3113 34.0498 50.6929 39.8642 58.0673 45.6857C60.0121 47.221 60.5334 49.5557 59.417 51.5754C58.1982 53.7808 55.8535 54.8106 53.6445 54.0136C52.9399 53.7596 52.283 53.3012 51.6855 52.8333C44.4824 47.1764 37.2937 41.4983 30.1001 35.8273C29.8288 35.6109 29.5455 35.404 29.3075 35.2254ZM26.4843 9.64226C18.8409 15.1816 13.1994 22.1599 9.45982 30.7111C13.0375 33.5302 16.5819 36.3186 20.1454 39.1259C20.5 38.8697 20.8333 38.6722 21.1142 38.4182C23.5136 36.2411 26.0321 34.172 28.2696 31.8397C31.9711 27.9814 34.7467 23.4742 36.9176 18.6167C37.0152 18.398 36.9771 17.9419 36.82 17.8173C33.4089 15.0876 29.9716 12.3884 26.4843 9.64226ZM31.2213 32.9988C31.4379 33.1798 31.5926 33.3162 31.7545 33.4432C36.1606 36.9135 40.5691 40.3838 44.9752 43.8565C47.9197 46.1771 50.8571 48.5071 53.8088 50.8207C54.9133 51.6882 55.9226 51.5378 56.6914 50.4374C57.3389 49.5111 57.1723 48.6693 56.1439 47.8582C50.8595 43.6872 45.5726 39.5233 40.2858 35.357C38.0673 33.6077 35.8464 31.8585 33.5922 30.0833C32.7876 31.0685 32.033 31.9995 31.2213 32.9988ZM27.4436 2.89205C26.4986 2.94613 25.9845 3.34583 25.7226 4.03707C25.4274 4.81296 25.7678 5.39135 26.3796 5.87334C31.2308 9.69399 36.0749 13.5217 40.9285 17.3376C41.7974 18.0195 42.6638 17.9513 43.2851 17.2107C43.9492 16.4183 43.8421 15.5649 42.9352 14.8501C38.0911 11.0224 33.2399 7.20175 28.3791 3.39285C28.0697 3.14363 27.6674 3.00726 27.4436 2.89205ZM4.76093 30.9627C3.77069 31.0026 3.297 31.447 3.03515 32.1289C2.74951 32.8742 3.078 33.4385 3.65643 33.8946C8.52432 37.7364 13.3946 41.5782 18.2696 45.4083C19.1266 46.0807 20.0121 45.9984 20.6214 45.2484C21.2403 44.4843 21.1427 43.6237 20.2858 42.9466C15.4251 39.0977 10.5548 35.2583 5.675 31.4306C5.36555 31.1884 4.96327 31.0638 4.76093 30.9627Z" fill="#3F5168"></path><path d="M10.4646 65.6119C10.4646 64.6009 10.3099 63.6135 10.4956 62.6941C10.924 60.5828 12.8069 59.2097 15.123 59.1933C18.0628 59.1721 21.0026 59.1862 23.9424 59.1862C30.5646 59.1862 37.1916 59.3202 43.809 59.1345C47.7462 59.024 50.4218 61.4551 49.4458 65.6025C49.7672 65.6425 50.0885 65.666 50.4051 65.7248C52.845 66.1809 54.4446 68.3064 54.2232 70.7892C54.0138 73.1474 52.0737 74.979 49.6434 74.9837C36.5465 75.0025 23.452 75.0025 10.3551 74.9837C7.85809 74.979 5.87999 73.0322 5.77287 70.6105C5.65861 68.0219 7.40581 65.9599 9.95521 65.6754C10.1528 65.6543 10.3527 65.6261 10.4646 65.6119ZM30.0504 72.1223C36.4322 72.1223 42.814 72.127 49.1959 72.12C50.5741 72.1176 51.3287 71.4499 51.3096 70.2978C51.293 69.1834 50.5479 68.5345 49.2244 68.5345C47.6224 68.5345 46.0204 68.5885 44.4184 68.5885C34.8017 68.5932 25.1825 68.5932 15.5658 68.5885C13.9043 68.5885 12.2428 68.5298 10.5812 68.5392C9.49103 68.5462 8.84833 69.1011 8.71264 70.0486C8.53174 71.3159 9.32679 72.1176 10.8145 72.12C17.2273 72.1247 23.6377 72.1223 30.0504 72.1223ZM30.0076 62.1017C28.4651 62.1017 26.9202 62.1017 25.3777 62.1017C21.9643 62.1017 18.5508 62.0922 15.1373 62.1087C13.89 62.1134 13.1663 62.8846 13.2568 64.039C13.3401 65.1041 14.0542 65.6519 15.3872 65.6519C25.123 65.6543 34.8588 65.6543 44.5922 65.6519C44.7707 65.6519 44.9493 65.659 45.1254 65.6425C46.2942 65.5203 46.9988 64.481 46.6822 63.3548C46.4441 62.506 45.8229 62.104 44.6946 62.104C39.8005 62.1017 34.904 62.104 30.0076 62.1017Z" fill="#3F5168"></path></g><defs><clipPath id="clip0_292_848"><rect width="60" height="75" fill="white"></rect></clipPath></defs></svg>