<svg xmlns="http://www.w3.org/2000/svg" width="23" height="23" viewBox="0 0 23 23" fill="none"><path d="M10.6953 0.0117188C11.1636 0.0117188 11.6315 0.0117188 12.0998 0.0117188C12.156 0.0240085 12.2118 0.0433199 12.2688 0.0477091C14.0184 0.178507 15.656 0.680631 17.1478 1.59929C20.0478 3.38481 21.8342 5.95293 22.4601 9.31066C22.536 9.71842 22.576 10.1332 22.6326 10.5445C22.6326 11.0128 22.6326 11.4807 22.6326 11.949C22.6146 12.093 22.5944 12.2369 22.579 12.3809C22.3385 14.6032 21.5331 16.5967 20.1149 18.3247C18.3514 20.4741 16.0949 21.8089 13.3543 22.3075C12.9395 22.383 12.5181 22.4243 12.0998 22.4813C11.6315 22.4813 11.1636 22.4813 10.6953 22.4813C10.421 22.4475 10.1462 22.4181 9.87276 22.3795C7.80018 22.0845 5.93829 21.2949 4.31999 19.9645C2.17236 18.1988 0.834973 15.9454 0.3368 13.2043C0.261306 12.7891 0.219608 12.3673 0.162109 11.949C0.162109 11.4807 0.162109 11.0128 0.162109 10.5445C0.179666 10.4005 0.199418 10.257 0.21522 10.1126C0.47506 7.73275 1.37528 5.62813 2.96285 3.83427C4.70844 1.86132 6.88284 0.634545 9.48344 0.181141C9.88505 0.111353 10.2915 0.0674615 10.6953 0.0117188ZM11.4182 4.76214C11.4178 4.78804 11.4173 4.81393 11.4169 4.84027C10.4881 4.84027 9.55937 4.82359 8.63149 4.84554C7.88358 4.86353 7.16726 5.03866 6.53522 5.4631C5.47962 6.17239 5.02665 7.22053 5.00207 8.44072C4.96432 10.3118 4.97837 12.1843 4.99944 14.0558C5.00778 14.7875 5.19695 15.4898 5.61349 16.1082C6.32366 17.1629 7.3718 17.6168 8.59155 17.6418C10.4627 17.68 12.3351 17.6747 14.2062 17.6427C15.232 17.6251 16.1576 17.2871 16.8722 16.5015C17.5152 15.7948 17.7768 14.9354 17.7979 14.0071C17.8326 12.4722 17.8356 10.936 17.8374 9.4002C17.8378 8.94767 17.804 8.49383 17.7593 8.0435C17.5854 6.30011 16.3398 5.03515 14.5947 4.89031C13.5395 4.80252 12.4773 4.80208 11.4182 4.76214Z" fill="white"></path><path d="M11.3977 16.5554C10.4259 16.5277 9.45284 16.5251 8.48283 16.4667C7.10374 16.3838 6.22152 15.5406 6.18421 14.158C6.13154 12.2009 6.1469 10.2411 6.18596 8.28308C6.20264 7.43509 6.58933 6.73282 7.37631 6.31629C7.81874 6.08234 8.30551 5.99675 8.79666 5.99631C10.6384 5.99456 12.4814 5.97481 14.3218 6.03318C15.6864 6.07664 16.5734 6.95799 16.6094 8.32346C16.6612 10.2731 16.6603 12.2263 16.609 14.176C16.5734 15.5252 15.6789 16.3719 14.3354 16.4685C13.8473 16.5036 13.357 16.5159 12.8676 16.5255C12.3778 16.5348 11.888 16.5277 11.3981 16.5277C11.3977 16.537 11.3977 16.5462 11.3977 16.5554ZM14.7071 11.2414C14.7032 9.41198 13.2324 7.94073 11.403 7.93634C9.56828 7.93151 8.08253 9.41681 8.08605 11.2515C8.09 13.0796 9.56213 14.5522 11.3907 14.557C13.2249 14.5618 14.7115 13.0756 14.7071 11.2414ZM15.6122 7.80378C15.6126 7.37935 15.2755 7.03655 14.8529 7.03172C14.4175 7.02646 14.0707 7.3675 14.0703 7.80115C14.0698 8.22778 14.4043 8.56794 14.8283 8.57277C15.2641 8.5776 15.6118 8.23656 15.6122 7.80378Z" fill="white"></path><path d="M11.3943 9.09668C12.5776 9.09536 13.5432 10.0562 13.5467 11.2382C13.5507 12.4303 12.5811 13.3998 11.389 13.3963C10.2083 13.3928 9.24619 12.4259 9.24707 11.2439C9.24883 10.0619 10.2127 9.098 11.3943 9.09668Z" fill="white"></path></svg>