<svg xmlns="http://www.w3.org/2000/svg" width="140" height="23" viewBox="0 0 140 23" fill="none"><path d="M128.936 22.4667C128.468 22.4667 128 22.4667 127.531 22.4667C127.258 22.4327 126.983 22.4035 126.709 22.3643C124.474 22.0442 122.499 21.1489 120.81 19.6486C118.86 17.916 117.641 15.7615 117.175 13.1904C117.099 12.7749 117.057 12.3536 117 11.9352C117 11.4671 117 10.999 117 10.5309C117.034 10.2564 117.062 9.98141 117.102 9.70815C117.456 7.2599 118.488 5.1405 120.221 3.37571C121.903 1.66298 123.93 0.589242 126.299 0.172618C126.707 0.100645 127.12 0.0567591 127.531 0C128 0 128.468 0 128.936 0C129.311 0.0485671 129.689 0.0836758 130.062 0.147457C132.194 0.510247 134.08 1.40142 135.691 2.84615C137.628 4.58228 138.839 6.73269 139.295 9.29855C139.367 9.70698 139.41 10.1207 139.467 10.532C139.467 11.0002 139.467 11.4683 139.467 11.9364C139.455 11.9926 139.435 12.0487 139.431 12.1055C139.299 13.8387 138.801 15.4613 137.897 16.9435C136.114 19.8645 133.539 21.6603 130.168 22.2952C129.761 22.3713 129.347 22.4105 128.936 22.4667ZM123.34 12.3296C123.768 13.4361 124.559 14.0125 125.742 14.1383C124.607 14.9821 123.381 15.3185 121.961 15.2021C122.083 15.2787 122.146 15.3226 122.213 15.3607C123.726 16.2331 125.353 16.5181 127.072 16.267C130.905 15.7059 133.07 12.446 133.224 9.40036C133.249 8.90767 133.31 8.51913 133.754 8.22305C134.001 8.05863 134.172 7.77834 134.374 7.54779C134.413 7.50274 134.439 7.44656 134.474 7.38863C134.021 7.51034 133.586 7.62679 133.151 7.74323C133.144 7.72509 133.135 7.70695 133.128 7.68823C133.612 7.34943 133.974 6.92052 134.152 6.38218C133.679 6.5507 133.207 6.71864 132.737 6.88716C132.607 6.93398 132.517 6.90004 132.409 6.80466C131.623 6.11126 130.719 5.91465 129.74 6.28973C128.772 6.66071 128.218 7.39566 128.094 8.42902C128.06 8.7058 128.089 8.98959 128.089 9.28626C125.957 9.13412 124.205 8.23007 122.81 6.59693C122.549 7.03404 122.444 7.49103 122.463 7.97495C122.496 8.82166 122.879 9.49165 123.551 10.0077C123.54 10.0276 123.528 10.0469 123.516 10.0668C123.163 9.96854 122.81 9.86965 122.43 9.76374C122.518 11.0505 123.184 11.8796 124.416 12.2758C124.411 12.2939 124.407 12.3115 124.403 12.3296C124.059 12.3296 123.716 12.3296 123.34 12.3296Z" fill="white"></path><path d="M100.79 10.7028C100.79 11.0803 100.79 11.4572 100.79 11.8347C100.776 11.9157 100.754 11.996 100.748 12.0775C100.677 13.0597 100.507 14.0243 100.179 14.9527C99.0154 18.2506 96.7812 20.5404 93.5684 21.8838C92.9886 22.126 92.3725 22.2806 91.7443 22.4854C91.7443 19.7474 91.7443 17.0734 91.7443 14.3692C92.483 14.3692 93.2102 14.3692 93.9363 14.3692C94.1024 13.3055 94.2642 12.272 94.4316 11.2047C93.3051 11.2047 92.2088 11.2047 91.098 11.2047C91.098 10.4588 91.0926 9.74301 91.0992 9.02725C91.1077 8.13391 91.6519 7.51358 92.5434 7.44713C93.2344 7.39579 93.9308 7.41573 94.6242 7.40425C94.7118 7.40304 94.7994 7.40425 94.8918 7.40425C94.8918 6.4638 94.8918 5.55414 94.8918 4.62818C93.8058 4.48684 92.73 4.35336 91.638 4.45C89.5813 4.63181 88.1184 6.06997 87.9788 8.12303C87.9148 9.06228 87.942 10.0076 87.9275 10.9498C87.9263 11.0302 87.9275 11.1105 87.9275 11.2174C87.0662 11.2174 86.2338 11.2174 85.4051 11.2174C85.4051 12.2829 85.4051 13.3206 85.4051 14.3861C86.252 14.3861 87.0849 14.3861 87.9172 14.3861C87.9172 17.0824 87.9172 19.7522 87.9172 22.428C87.8695 22.4256 87.8321 22.4274 87.7958 22.4207C85.1345 21.9466 82.8731 20.7524 81.0924 18.6964C79.6144 16.9894 78.7404 15.0125 78.4571 12.7746C78.4003 12.3276 78.3677 11.877 78.3242 11.4282C78.3242 11.3074 78.3242 11.1866 78.3242 11.0658C78.3369 10.9619 78.3568 10.8586 78.3617 10.7547C78.4058 9.78589 78.5664 8.83758 78.8551 7.91162C80.6068 2.2852 86.3764 -1.0224 92.1248 0.303419C96.4737 1.30669 99.9021 4.95435 100.613 9.34194C100.686 9.79254 100.731 10.2492 100.79 10.7028Z" fill="white"></path><path d="M49.6953 0.0117188C50.1636 0.0117188 50.6315 0.0117188 51.0998 0.0117188C51.156 0.0240085 51.2118 0.0433199 51.2688 0.0477091C53.0184 0.178507 54.656 0.680631 56.1478 1.59929C59.0478 3.38481 60.8342 5.95293 61.4601 9.31066C61.536 9.71842 61.576 10.1332 61.6326 10.5445C61.6326 11.0128 61.6326 11.4807 61.6326 11.949C61.6146 12.093 61.5944 12.2369 61.579 12.3809C61.3385 14.6032 60.5331 16.5967 59.1149 18.3247C57.3514 20.4741 55.0949 21.8089 52.3543 22.3075C51.9395 22.383 51.5181 22.4243 51.0998 22.4813C50.6315 22.4813 50.1636 22.4813 49.6953 22.4813C49.421 22.4475 49.1462 22.4181 48.8728 22.3795C46.8002 22.0845 44.9383 21.2949 43.32 19.9645C41.1724 18.1988 39.835 15.9454 39.3368 13.2043C39.2613 12.7891 39.2196 12.3673 39.1621 11.949C39.1621 11.4807 39.1621 11.0128 39.1621 10.5445C39.1797 10.4005 39.1994 10.257 39.2152 10.1126C39.4751 7.73275 40.3753 5.62813 41.9629 3.83427C43.7084 1.86132 45.8828 0.634545 48.4834 0.181141C48.885 0.111353 49.2915 0.0674615 49.6953 0.0117188ZM50.4182 4.76214C50.4178 4.78804 50.4173 4.81393 50.4169 4.84027C49.4881 4.84027 48.5594 4.82359 47.6315 4.84554C46.8836 4.86353 46.1673 5.03866 45.5352 5.4631C44.4796 6.17239 44.0267 7.22053 44.0021 8.44072C43.9643 10.3118 43.9784 12.1843 43.9994 14.0558C44.0078 14.7875 44.197 15.4898 44.6135 16.1082C45.3237 17.1629 46.3718 17.6168 47.5916 17.6418C49.4627 17.68 51.3351 17.6747 53.2062 17.6427C54.232 17.6251 55.1576 17.2871 55.8722 16.5015C56.5152 15.7948 56.7768 14.9354 56.7979 14.0071C56.8326 12.4722 56.8356 10.936 56.8374 9.4002C56.8378 8.94767 56.804 8.49383 56.7593 8.0435C56.5854 6.30011 55.3398 5.03515 53.5947 4.89031C52.5395 4.80252 51.4773 4.80208 50.4182 4.76214Z" fill="white"></path><path d="M50.3977 16.5554C49.4259 16.5277 48.4528 16.5251 47.4828 16.4667C46.1037 16.3838 45.2215 15.5406 45.1842 14.158C45.1315 12.2009 45.1469 10.2411 45.186 8.28308C45.2026 7.43509 45.5893 6.73282 46.3763 6.31629C46.8187 6.08234 47.3055 5.99675 47.7967 5.99631C49.6384 5.99456 51.4814 5.97481 53.3218 6.03318C54.6864 6.07664 55.5734 6.95799 55.6094 8.32346C55.6612 10.2731 55.6603 12.2263 55.609 14.176C55.5734 15.5252 54.6789 16.3719 53.3354 16.4685C52.8473 16.5036 52.357 16.5159 51.8676 16.5255C51.3778 16.5348 50.888 16.5277 50.3981 16.5277C50.3977 16.537 50.3977 16.5462 50.3977 16.5554ZM53.7071 11.2414C53.7032 9.41198 52.2324 7.94073 50.403 7.93634C48.5683 7.93151 47.0825 9.41681 47.086 11.2515C47.09 13.0796 48.5621 14.5522 50.3907 14.557C52.2249 14.5618 53.7115 13.0756 53.7071 11.2414ZM54.6122 7.80378C54.6126 7.37935 54.2755 7.03655 53.8529 7.03172C53.4175 7.02646 53.0707 7.3675 53.0703 7.80115C53.0698 8.22778 53.4043 8.56794 53.8283 8.57277C54.2641 8.5776 54.6118 8.23656 54.6122 7.80378Z" fill="white"></path><path d="M50.3943 9.09668C51.5776 9.09536 52.5432 10.0562 52.5467 11.2382C52.5507 12.4303 51.5811 13.3998 50.389 13.3963C49.2083 13.3928 48.2462 12.4259 48.2471 11.2439C48.2488 10.0619 49.2127 9.098 50.3943 9.09668Z" fill="white"></path><path d="M10.5753 0C11.0288 0 11.4823 0 11.9358 0C11.992 0.0122881 12.0476 0.0315988 12.1049 0.0356948C13.7925 0.162671 15.3782 0.634299 16.8323 1.49914C19.8201 3.27565 21.6516 5.87486 22.2952 9.29738C22.3719 9.70523 22.4111 10.1195 22.4673 10.5309C22.4673 10.9844 22.4673 11.4378 22.4673 11.8913C22.455 11.9615 22.4397 12.0318 22.4298 12.1026C22.3689 12.5438 22.3303 12.9885 22.2455 13.425C21.3707 17.9482 17.7118 21.5211 13.1675 22.2941C12.7591 22.3637 12.3466 22.4093 11.9358 22.4661C11.4677 22.4661 10.9996 22.4661 10.5315 22.4661C10.4829 22.4538 10.4355 22.4333 10.3863 22.4298C9.4343 22.3619 8.50217 22.187 7.60748 21.8552C3.52726 20.3449 1.05151 17.4502 0.177884 13.1898C0.0930381 12.7767 0.0579294 12.3542 0 11.9358C0 11.4677 0 10.9996 0 10.5315C0.0567591 10.1207 0.101815 9.70757 0.172033 9.29855C0.947936 4.75255 4.51908 1.09481 9.03874 0.221185C9.54607 0.123466 10.0627 0.0725581 10.5753 0ZM17.1366 17.1383C17.1413 17.0599 17.1489 16.9956 17.1489 16.9318C17.1494 15.5497 17.1652 14.1675 17.1413 12.786C17.1313 12.212 17.0792 11.6304 16.9698 11.0674C16.7902 10.1423 16.277 9.45829 15.3285 9.202C14.9867 9.10955 14.6234 9.0604 14.2694 9.05689C13.2857 9.04694 12.4735 9.40388 11.9253 10.2588C11.9165 10.2728 11.8937 10.2781 11.8469 10.3044C11.8469 9.94221 11.8469 9.604 11.8469 9.26695C11.0563 9.26695 10.2921 9.26695 9.51915 9.26695C9.51915 11.8943 9.51915 14.5081 9.51915 17.1325C10.3302 17.1325 11.1289 17.1325 11.9411 17.1325C11.9411 17.0283 11.9411 16.9411 11.9411 16.854C11.9411 15.6328 11.9376 14.4116 11.9434 13.1909C11.9457 12.7439 11.9791 12.2986 12.1886 11.8896C12.4548 11.37 12.9844 11.1388 13.6854 11.233C14.1664 11.2974 14.4999 11.6257 14.6064 12.1857C14.662 12.4782 14.6907 12.7802 14.6924 13.078C14.7018 14.3501 14.6971 15.6222 14.6977 16.8949C14.6977 16.9727 14.6977 17.0506 14.6977 17.1395C15.5192 17.1383 16.3139 17.1383 17.1366 17.1383ZM7.95681 9.27105C7.12941 9.27105 6.33011 9.27105 5.53431 9.27105C5.53431 11.9019 5.53431 14.5145 5.53431 17.1336C6.34766 17.1336 7.14638 17.1336 7.95681 17.1336C7.95681 14.5052 7.95681 11.8925 7.95681 9.27105ZM6.7204 8.16864C7.51795 8.17156 8.16044 7.53609 8.16044 6.74264C8.16103 5.96556 7.51444 5.31897 6.73561 5.3178C5.9562 5.31663 5.31254 5.95795 5.30903 6.73912C5.30552 7.52731 5.9363 8.16571 6.7204 8.16864Z" fill="white"></path></svg>