<svg xmlns="http://www.w3.org/2000/svg" width="23" height="23" viewBox="0 0 23 23" fill="none"><path d="M11.9358 22.4667C11.4677 22.4667 10.9996 22.4667 10.5315 22.4667C10.2576 22.4327 9.98258 22.4035 9.70932 22.3643C7.47406 22.0442 5.49861 21.1489 3.80988 19.6486C1.85959 17.916 0.641319 15.7615 0.174958 13.1904C0.0994742 12.7749 0.0573443 12.3536 0 11.9352C0 11.4671 0 10.999 0 10.5309C0.0339384 10.2564 0.0620249 9.98141 0.101815 9.70815C0.455828 7.2599 1.48802 5.1405 3.22122 3.3757C4.90293 1.66298 6.93046 0.589242 9.29854 0.172618C9.70698 0.100645 10.1201 0.0567591 10.5315 0C10.9996 0 11.4677 0 11.9358 0C12.3115 0.0485671 12.6889 0.0836758 13.0616 0.147457C15.1945 0.510247 17.0804 1.40142 18.6913 2.84615C20.6276 4.58228 21.8388 6.73269 22.2946 9.29855C22.3672 9.70698 22.4105 10.1207 22.4673 10.532C22.4673 11.0002 22.4673 11.4683 22.4673 11.9364C22.455 11.9926 22.4351 12.0487 22.431 12.1055C22.2987 13.8387 21.8014 15.4613 20.8967 16.9435C19.1138 19.8645 16.5386 21.6603 13.1681 22.2952C12.7609 22.3713 12.3466 22.4105 11.9358 22.4667ZM6.34005 12.3296C6.76779 13.4361 7.55949 14.0125 8.74207 14.1383C7.60747 14.9821 6.38101 15.3185 4.96145 15.2021C5.08257 15.2787 5.14635 15.3226 5.21306 15.3607C6.72625 16.2331 8.35295 16.5181 10.0715 16.267C13.9048 15.7059 16.0704 12.446 16.2243 9.40036C16.2495 8.90767 16.3098 8.51913 16.7545 8.22305C17.0014 8.05863 17.1717 7.77834 17.3736 7.54779C17.4128 7.50274 17.4385 7.44656 17.4742 7.38863C17.0207 7.51034 16.586 7.62679 16.1512 7.74323C16.1436 7.72509 16.1354 7.70695 16.1278 7.68823C16.6117 7.34943 16.9739 6.92052 17.1518 6.38218C16.679 6.55071 16.2074 6.71864 15.7369 6.88716C15.607 6.93398 15.5169 6.90004 15.4086 6.80466C14.6228 6.11126 13.7193 5.91465 12.7398 6.28973C11.772 6.66071 11.2184 7.39566 11.0938 8.42902C11.0604 8.7058 11.0885 8.98959 11.0885 9.28626C8.95741 9.13412 7.20548 8.23007 5.80991 6.59693C5.54893 7.03404 5.44419 7.49103 5.46292 7.97495C5.49569 8.82165 5.87896 9.49165 6.55129 10.0077C6.53959 10.0276 6.52788 10.0469 6.51618 10.0668C6.16334 9.96854 5.80991 9.86965 5.43015 9.76374C5.51792 11.0505 6.18382 11.8796 7.41555 12.2758C7.41145 12.2939 7.40677 12.3115 7.40268 12.3296C7.0592 12.3296 6.71572 12.3296 6.34005 12.3296Z" fill="white"></path></svg>