<svg xmlns="http://www.w3.org/2000/svg" width="23" height="23" viewBox="0 0 23 23" fill="none"><path d="M10.5753 0C11.0288 0 11.4823 0 11.9358 0C11.992 0.0122881 12.0476 0.0315988 12.1049 0.0356948C13.7925 0.162671 15.3782 0.634299 16.8323 1.49914C19.8201 3.27565 21.6516 5.87486 22.2952 9.29738C22.3719 9.70523 22.4111 10.1195 22.4673 10.5309C22.4673 10.9844 22.4673 11.4378 22.4673 11.8913C22.455 11.9615 22.4397 12.0318 22.4298 12.1026C22.3689 12.5438 22.3303 12.9885 22.2455 13.425C21.3707 17.9482 17.7118 21.5211 13.1675 22.294C12.7591 22.3637 12.3466 22.4093 11.9358 22.4661C11.4677 22.4661 10.9996 22.4661 10.5315 22.4661C10.4829 22.4538 10.4355 22.4333 10.3863 22.4298C9.4343 22.3619 8.50217 22.187 7.60748 21.8552C3.52726 20.3449 1.05151 17.4502 0.177884 13.1898C0.0930381 12.7767 0.0579294 12.3542 0 11.9358C0 11.4677 0 10.9996 0 10.5315C0.0567591 10.1207 0.101815 9.70757 0.172033 9.29855C0.947936 4.75255 4.51908 1.09481 9.03874 0.221185C9.54607 0.123466 10.0627 0.0725581 10.5753 0ZM17.1366 17.1383C17.1413 17.0599 17.1489 16.9956 17.1489 16.9318C17.1494 15.5497 17.1652 14.1675 17.1413 12.786C17.1313 12.212 17.0792 11.6304 16.9698 11.0674C16.7902 10.1423 16.277 9.45829 15.3285 9.202C14.9867 9.10955 14.6234 9.0604 14.2694 9.05689C13.2857 9.04694 12.4735 9.40388 11.9253 10.2588C11.9165 10.2728 11.8937 10.2781 11.8469 10.3044C11.8469 9.94221 11.8469 9.604 11.8469 9.26695C11.0563 9.26695 10.2921 9.26695 9.51915 9.26695C9.51915 11.8943 9.51915 14.5081 9.51915 17.1325C10.3302 17.1325 11.1289 17.1325 11.9411 17.1325C11.9411 17.0283 11.9411 16.9411 11.9411 16.854C11.9411 15.6328 11.9376 14.4116 11.9434 13.1909C11.9457 12.7439 11.9791 12.2986 12.1886 11.8896C12.4548 11.37 12.9844 11.1388 13.6854 11.233C14.1664 11.2974 14.4999 11.6257 14.6064 12.1857C14.662 12.4782 14.6907 12.7802 14.6924 13.078C14.7018 14.3501 14.6971 15.6222 14.6977 16.8949C14.6977 16.9727 14.6977 17.0506 14.6977 17.1395C15.5192 17.1383 16.3139 17.1383 17.1366 17.1383ZM7.95681 9.27105C7.12941 9.27105 6.33011 9.27105 5.53431 9.27105C5.53431 11.9019 5.53431 14.5145 5.53431 17.1336C6.34766 17.1336 7.14638 17.1336 7.95681 17.1336C7.95681 14.5052 7.95681 11.8925 7.95681 9.27105ZM6.7204 8.16864C7.51795 8.17156 8.16044 7.53609 8.16044 6.74264C8.16103 5.96556 7.51444 5.31897 6.73561 5.3178C5.9562 5.31663 5.31254 5.95795 5.30903 6.73912C5.30552 7.52731 5.9363 8.16571 6.7204 8.16864Z" fill="white"></path></svg>