<svg xmlns="http://www.w3.org/2000/svg" width="23" height="23" viewBox="0 0 23 23" fill="none"><path d="M22.7901 10.7028C22.7901 11.0803 22.7901 11.4572 22.7901 11.8347C22.7756 11.9157 22.7538 11.996 22.7484 12.0775C22.6771 13.0597 22.5068 14.0243 22.1788 14.9527C21.0155 18.2506 18.7812 20.5404 15.5684 21.8838C14.9886 22.126 14.3725 22.2806 13.7443 22.4854C13.7443 19.7474 13.7443 17.0734 13.7443 14.3692C14.483 14.3692 15.2102 14.3692 15.9363 14.3692C16.1024 13.3055 16.2642 12.272 16.4316 11.2047C15.3051 11.2047 14.2088 11.2047 13.098 11.2047C13.098 10.4588 13.0926 9.74301 13.0992 9.02725C13.1077 8.13391 13.6519 7.51358 14.5434 7.44713C15.2344 7.39579 15.9308 7.41573 16.6242 7.40425C16.7118 7.40304 16.7994 7.40425 16.8918 7.40425C16.8918 6.4638 16.8918 5.55414 16.8918 4.62818C15.8058 4.48684 14.73 4.35336 13.638 4.45C11.5813 4.63181 10.1184 6.06997 9.97884 8.12303C9.91481 9.06228 9.94199 10.0076 9.9275 10.9498C9.92629 11.0302 9.9275 11.1105 9.9275 11.2174C9.06617 11.2174 8.23383 11.2174 7.40512 11.2174C7.40512 12.2829 7.40512 13.3206 7.40512 14.3861C8.25195 14.3861 9.08489 14.3861 9.91723 14.3861C9.91723 17.0824 9.91723 19.7522 9.91723 22.428C9.86951 22.4256 9.83206 22.4274 9.79582 22.4207C7.13452 21.9466 4.87307 20.7524 3.09243 18.6964C1.6144 16.9894 0.740384 15.0125 0.4571 12.7746C0.400322 12.3276 0.367708 11.877 0.324219 11.4282C0.324219 11.3074 0.324219 11.1866 0.324219 11.0658C0.336903 10.9619 0.356835 10.8586 0.361668 10.7547C0.405761 9.78589 0.566425 8.83758 0.855145 7.91162C2.6068 2.2852 8.37638 -1.0224 14.1248 0.303419C18.4737 1.30669 21.9021 4.95435 22.6131 9.34194C22.6856 9.79254 22.7315 10.2492 22.7901 10.7028Z" fill="white"></path></svg>